<?xml version="1.0" standalone="no"?>
<!DOCTYPE svg PUBLIC "-//W3C//DTD SVG 1.1//EN" 
"http://www.w3.org/Graphics/SVG/1.1/DTD/svg11.dtd">

<svg width="100" height="100" version="1.1"
xmlns="http://www.w3.org/2000/svg">

<path d="M4,16c0,0.88 0.39,1.67 1,2.22L5,20c0,0.55 0.45,1 1,1h1c0.55,0 1,-0.45 1,-1v-1h8v1c0,0.55 0.45,1 1,1h1c0.55,0 1,-0.45 1,-1v-1.78c0.61,-0.55 1,-1.34 1,-2.22L20,6c0,-3.5 -3.58,-4 -8,-4s-8,0.5 -8,4v10zM7.5,17c-0.83,0 -1.5,-0.67 -1.5,-1.5S6.67,14 7.5,14s1.5,0.67 1.5,1.5S8.33,17 7.5,17zM16.5,17c-0.83,0 -1.5,-0.67 -1.5,-1.5s0.67,-1.5 1.5,-1.5 1.5,0.67 1.5,1.5 -0.67,1.5 -1.5,1.5zM18,11L6,11L6,6h12v5z"/>
</svg>